<?xml version="1.0"?>
<svg xmlns="http://www.w3.org/2000/svg" viewBox="0 -31 511.99963 511" width="512px" height="512px" class=""><g><path d="m154.09375 47.460938c0 4.316406-3.5 7.816406-7.816406 7.816406s-7.816406-3.5-7.816406-7.816406c0-4.316407 3.5-7.816407 7.816406-7.816407s7.816406 3.5 7.816406 7.816407zm0 0" data-original="#000000" class="active-path" data-old_color="#000000" fill="#FFFDFD"/><path d="m182.878906 47.460938c0 4.316406-3.5 7.816406-7.816406 7.816406s-7.8125-3.5-7.8125-7.816406c0-4.316407 3.496094-7.816407 7.8125-7.816407s7.816406 3.5 7.816406 7.816407zm0 0" data-original="#000000" class="active-path" data-old_color="#000000" fill="#FFFDFD"/><path d="m211.667969 47.460938c0 4.316406-3.5 7.816406-7.816407 7.816406-4.316406 0-7.816406-3.5-7.816406-7.816406 0-4.316407 3.5-7.816407 7.816406-7.816407 4.316407 0 7.816407 3.5 7.816407 7.816407zm0 0" data-original="#000000" class="active-path" data-old_color="#000000" fill="#FFFDFD"/><path d="m154.09375 126.382812c0 4.316407-3.5 7.816407-7.816406 7.816407s-7.816406-3.5-7.816406-7.816407c0-4.316406 3.5-7.816406 7.816406-7.816406s7.816406 3.5 7.816406 7.816406zm0 0" data-original="#000000" class="active-path" data-old_color="#000000" fill="#FFFDFD"/><path d="m182.878906 126.382812c0 4.316407-3.5 7.816407-7.816406 7.816407s-7.8125-3.5-7.8125-7.816407c0-4.316406 3.496094-7.816406 7.8125-7.816406s7.816406 3.5 7.816406 7.816406zm0 0" data-original="#000000" class="active-path" data-old_color="#000000" fill="#FFFDFD"/><path d="m211.667969 126.382812c0 4.316407-3.5 7.816407-7.816407 7.816407-4.316406 0-7.816406-3.5-7.816406-7.816407 0-4.316406 3.5-7.816406 7.816406-7.816406 4.316407 0 7.816407 3.5 7.816407 7.816406zm0 0" data-original="#000000" class="active-path" data-old_color="#000000" fill="#FFFDFD"/><path d="m154.09375 205.304688c0 4.316406-3.5 7.816406-7.816406 7.816406s-7.816406-3.5-7.816406-7.816406c0-4.316407 3.5-7.8125 7.816406-7.8125s7.816406 3.496093 7.816406 7.8125zm0 0" data-original="#000000" class="active-path" data-old_color="#000000" fill="#FFFDFD"/><path d="m182.878906 205.304688c0 4.316406-3.5 7.816406-7.816406 7.816406s-7.8125-3.5-7.8125-7.816406c0-4.316407 3.496094-7.8125 7.8125-7.8125s7.816406 3.496093 7.816406 7.8125zm0 0" data-original="#000000" class="active-path" data-old_color="#000000" fill="#FFFDFD"/><path d="m211.667969 205.304688c0 4.316406-3.5 7.816406-7.816407 7.816406-4.316406 0-7.816406-3.5-7.816406-7.816406 0-4.316407 3.5-7.8125 7.816406-7.8125 4.316407 0 7.816407 3.496093 7.816407 7.8125zm0 0" data-original="#000000" class="active-path" data-old_color="#000000" fill="#FFFDFD"/><path d="m154.09375 284.230469c0 4.3125-3.5 7.8125-7.816406 7.8125-4.3125 0-7.8125-3.5-7.8125-7.8125 0-4.316407 3.5-7.816407 7.8125-7.816407 4.316406 0 7.816406 3.5 7.816406 7.816407zm0 0" data-original="#000000" class="active-path" data-old_color="#000000" fill="#FFFDFD"/><path d="m312.667969 54.960938h38.542969c4.140624 0 7.5-3.359376 7.5-7.5 0-4.144532-3.359376-7.5-7.5-7.5h-38.542969c-4.144531 0-7.5 3.355468-7.5 7.5 0 4.140624 3.355469 7.5 7.5 7.5zm0 0" data-original="#000000" class="active-path" data-old_color="#000000" fill="#FFFDFD"/><path d="m312.667969 133.882812h38.542969c4.140624 0 7.5-3.355468 7.5-7.5 0-4.144531-3.359376-7.5-7.5-7.5h-38.542969c-4.144531 0-7.5 3.355469-7.5 7.5 0 4.144532 3.355469 7.5 7.5 7.5zm0 0" data-original="#000000" class="active-path" data-old_color="#000000" fill="#FFFDFD"/><path d="m351.210938 197.804688h-38.542969c-4.144531 0-7.5 3.359374-7.5 7.5 0 4.144531 3.355469 7.5 7.5 7.5h38.542969c4.140624 0 7.5-3.355469 7.5-7.5 0-4.140626-3.359376-7.5-7.5-7.5zm0 0" data-original="#000000" class="active-path" data-old_color="#000000" fill="#FFFDFD"/><path d="m511.96875 340.90625c.019531-1.195312.105469-2.421875-.136719-3.601562-2.238281-44.820313-30.933593-83.582032-72.886719-98.855469 1.625-30.179688-10.363281-59.847657-32.746093-80.371094-3.535157-3.234375-7.269531-6.199219-11.136719-8.859375v-104.238281c0-24.527344-19.953125-44.480469-44.480469-44.480469h-204.902343c-24.527344 0-44.480469 19.953125-44.480469 44.480469v120.847656.019531 15.957032c-29.246094 26.324218-44.257813 65.648437-40.199219 104.78125-35.738281 9.851562-61 42.53125-61 80.246093 0 45.910157 37.335938 83.261719 83.226562 83.261719h317.535157c38.632812 0 73.925781-19.59375 94.410156-52.40625 2.191406-3.511719 1.121094-8.140625-2.390625-10.332031-3.515625-2.195313-8.140625-1.121094-10.335938 2.390625-17.726562 28.394531-48.261718 45.347656-81.683593 45.347656h-317.535157c-37.621093 0-68.226562-30.621094-68.226562-68.257812 0-32.894532 23.421875-61.117188 55.691406-67.105469 4.085938-.761719 8.277344-1.148438 12.476563-1.152344.023437 0 .042969.003906.066406.003906 37.621094 0 68.230469 30.621094 68.230469 68.257813 0 4.140625 3.359375 7.5 7.5 7.5 4.144531 0 7.5-3.359375 7.5-7.5 0-16.105469-4.609375-31.148438-12.558594-43.902344 10.15625-11.058594 22.742188-19.632812 36.714844-24.945312 2.765625-1.054688 5.589844-1.984376 8.410156-2.761719 2.617188-.730469 5.304688-1.355469 7.980469-1.859375 1.839843-.34375 3.605469-.621094 5.40625-.847656.054687-.003907.113281-.011719.167969-.019532 3.984374-.515625 8.101562-.777344 12.238281-.777344 7.445312 0 14.859375.851563 22.039062 2.535157 4.023438.949219 8.066407-1.558594 9.011719-5.59375.945312-4.03125-1.558594-8.066407-5.589844-9.011719-8.296875-1.945312-16.863281-2.929688-25.460937-2.929688-4.734375 0-9.453125.296876-14.03125.882813-.035157.003906-.066407.007813-.101563.011719-.746094.09375-1.484375.203125-2.226562.3125-1.292969-.949219-2.886719-1.519532-4.617188-1.519532-2.851562 0-5.34375 1.535157-6.707031 3.820313-.707031.179687-1.425781.347656-2.125.542969-3.257813.898437-6.539063 1.976562-9.738281 3.199218-.816406.308594-1.628906.640626-2.4375.972657.019531-.238281.035156-.476563.035156-.71875 0-4.320313-3.496094-7.816407-7.8125-7.816407s-7.816406 3.5-7.816406 7.816407c0 2.726562 1.398437 5.125 3.519531 6.523437-9.585937 5.34375-18.367187 12.101563-26.03125 20.046875-7.847656-8.609375-17.480469-15.558593-28.296875-20.285156-.160156-1.257813-.242188-2.527344-.242188-3.800781v-34.449219h220.042969c-17.777343 12.625-31.527343 30.277344-39.398437 50.949219-3.738282-3.183594-7.683594-6.128906-11.808594-8.792969-3.484375-2.246094-8.125-1.246094-10.371094 2.234375-2.242187 3.480469-1.242187 8.121094 2.238282 10.367188 6.566406 4.238281 12.617187 9.273437 17.992187 14.984374 1.921875 2.03125 3.753906 4.15625 5.472656 6.347657 4.355469 5.496093 8.125 11.507812 11.191407 17.867187 1.292968 2.683594 3.972656 4.242188 6.761718 4.242188 1.09375 0 2.203125-.238282 3.253906-.746094 3.730469-1.800781 5.292969-6.285156 3.496094-10.015625-3.550781-7.351563-7.90625-14.304687-12.925781-20.640625-1.105469-1.40625-2.261719-2.796875-3.453125-4.160156 8.964844-29.566406 31.46875-52.96875 60.894531-63.042969 6.101563-2.089844 12.46875-3.570313 18.925781-4.394531 4.007813-.511719 8.128907-.769532 12.25-.769532 9.578126 0 19.007813 1.398438 28.039063 4.15625 39.9375 12.136719 67.324219 48.34375 68.167969 90.039063-.132813 6.378906-.898438 12.75-2.269532 18.933594-.898437 4.042969 1.652344 8.046875 5.695313 8.945312.546875.125 1.09375.183594 1.632813.183594 3.4375 0 6.539062-2.382813 7.3125-5.875 1.355468-6.097656 2.191406-12.347656 2.503906-18.652344.230468-1.152343.148437-2.351562.128906-3.519531.011719-.691406.011719.652344 0 0zm-395.769531-295.925781c0-16.257813 13.222656-29.480469 29.480469-29.480469h204.902343c16.257813 0 29.480469 13.222656 29.480469 29.480469v34.441406h-208.566406c-4.144532 0-7.5 3.355469-7.5 7.5s3.355468 7.5 7.5 7.5h208.566406v63.921875h-263.863281v-63.921875h20.496093c4.144532 0 7.5-3.355469 7.5-7.5s-3.355468-7.5-7.5-7.5h-20.496093zm-32.78125 238.605469c-.0625 0-.125-.011719-.191407-.011719-2.476562 0-4.957031.117187-7.425781.335937-2.726562-29.214844 6.609375-58.460937 25.398438-80.625v82.269532c-5.730469-1.265626-11.675781-1.957032-17.78125-1.96875zm32.78125-110.238282h263.863281v60.28125c-4.789062.90625-9.511719 2.121094-14.109375 3.636719h-249.753906zm278.863281 58.507813v-63.597657c.332031.296876.671875.578126 1 .878907 18.214844 16.699219 28.34375 40.511719 28.011719 65.027343-7.617188-1.628906-15.425781-2.46875-23.3125-2.46875-1.902344 0-3.804688.0625-5.699219.160157zm0 0" data-original="#000000" class="active-path" data-old_color="#000000" fill="#FFFDFD"/></g> </svg>
